<svg width="21" height="25" viewBox="0 0 21 25" fill="none" xmlns="http://www.w3.org/2000/svg">
<path d="M16.9075 13.3237C16.9191 12.4265 17.16 11.5467 17.6076 10.7663C18.0552 9.98591 18.6951 9.33023 19.4676 8.86027C18.9768 8.16672 18.3294 7.59596 17.5767 7.19332C16.824 6.79067 15.9869 6.56724 15.1317 6.54076C13.3074 6.35128 11.5388 7.62096 10.6092 7.62096C9.66159 7.62096 8.23029 6.55958 6.68902 6.59095C5.69208 6.62283 4.72048 6.90969 3.8689 7.42361C3.01731 7.93752 2.31478 8.66095 1.82975 9.52341C-0.271299 13.123 1.29589 18.4131 3.30852 21.3227C4.31548 22.7475 5.49233 24.3389 7.03221 24.2825C8.53908 24.2207 9.10187 23.3317 10.9208 23.3317C12.7228 23.3317 13.2508 24.2825 14.822 24.2466C16.4389 24.2206 17.4576 22.8155 18.4293 21.3773C19.1528 20.3621 19.7095 19.2401 20.0788 18.0528C19.1394 17.6597 18.3378 17.0016 17.7738 16.1606C17.2099 15.3197 16.9086 14.333 16.9075 13.3237Z" fill="white"/>
<path d="M13.9391 4.62742C14.8207 3.58014 15.255 2.23405 15.1499 0.875C13.803 1.01499 12.5588 1.65199 11.6652 2.65908C11.2284 3.15107 10.8938 3.72344 10.6806 4.34347C10.4674 4.96349 10.3798 5.61902 10.4227 6.27257C11.0964 6.27944 11.7629 6.13494 12.372 5.84998C12.9811 5.56501 13.5169 5.14699 13.9391 4.62742Z" fill="white"/>
</svg>
