<svg width="130" height="44" viewBox="0 0 130 44" fill="none" xmlns="http://www.w3.org/2000/svg">
<path d="M119.648 0.50014H10.3582C9.95986 0.50014 9.56627 0.50014 9.16895 0.50229C8.83635 0.50444 8.50641 0.510686 8.17062 0.515942C7.44114 0.524437 6.71337 0.587942 5.99364 0.705906C5.27492 0.826437 4.57871 1.05367 3.92857 1.37993C3.27922 1.70895 2.68589 2.13647 2.17011 2.64699C1.65162 3.15607 1.21942 3.74451 0.890121 4.38966C0.559918 5.03353 0.330954 5.7235 0.211137 6.43573C0.090181 7.14706 0.0250935 7.8666 0.0164586 8.58788C0.00637702 8.91748 0.00531237 9.24817 0 9.57781V34.4256C0.00531237 34.7594 0.00637702 35.0828 0.0164586 35.4167C0.0250961 36.1379 0.0901836 36.8574 0.211137 37.5687C0.330623 38.2814 0.5596 38.9717 0.890121 39.6158C1.21927 40.2589 1.65153 40.845 2.17011 41.3512C2.68394 41.864 3.27765 42.2918 3.92857 42.6183C4.57871 42.9454 5.27484 43.174 5.99364 43.2964C6.71349 43.4134 7.44118 43.477 8.17062 43.4865C8.50641 43.4938 8.83635 43.498 9.16895 43.498C9.56626 43.5001 9.95988 43.5001 10.3582 43.5001H119.648C120.038 43.5001 120.435 43.5001 120.825 43.498C121.156 43.498 121.496 43.4938 121.827 43.4865C122.555 43.4775 123.281 43.414 124 43.2964C124.721 43.1732 125.419 42.9446 126.073 42.6183C126.723 42.2916 127.316 41.8638 127.829 41.3512C128.347 40.843 128.78 40.2574 129.113 39.6158C129.441 38.9713 129.668 38.281 129.786 37.5687C129.907 36.8573 129.974 36.138 129.987 35.4167C129.992 35.0828 129.992 34.7594 129.992 34.4256C130 34.0351 130 33.6467 130 33.2498V10.7515C130 10.3578 130 9.96728 129.992 9.57781C129.992 9.24817 129.992 8.91748 129.987 8.58784C129.974 7.86649 129.907 7.14712 129.786 6.43569C129.668 5.72387 129.441 5.03396 129.113 4.38962C128.442 3.09648 127.379 2.04387 126.073 1.37983C125.419 1.05437 124.721 0.827198 124 0.705809C123.281 0.587325 122.555 0.523798 121.827 0.515792C121.496 0.510546 121.156 0.504246 120.825 0.50215C120.435 0.5 120.038 0.5 119.648 0.5V0.50014Z" fill="#A6A6A6"/>
<path d="M9.17505 42.5602C8.84405 42.5602 8.52105 42.556 8.19265 42.5487C7.51235 42.5399 6.83363 42.4813 6.16207 42.3733C5.53587 42.2666 4.92925 42.0681 4.36223 41.7843C3.8004 41.5029 3.28797 41.1339 2.84456 40.6915C2.39474 40.2543 2.02024 39.7471 1.73591 39.1902C1.44844 38.6297 1.2495 38.0289 1.146 37.4088C1.03424 36.7424 0.973776 36.0686 0.965123 35.3931C0.958236 35.1664 0.949219 34.4116 0.949219 34.4116V9.57845C0.949219 9.57845 0.958822 8.83518 0.965178 8.61682C0.973462 7.94245 1.03358 7.26968 1.14501 6.60434C1.24869 5.98248 1.44779 5.37994 1.73541 4.81758C2.01869 4.26107 2.39111 3.75358 2.83823 3.31479C3.28484 2.87182 3.79891 2.50093 4.3617 2.21563C4.92742 1.93278 5.53289 1.73567 6.15782 1.6309C6.83159 1.52186 7.51266 1.4629 8.19533 1.45453L9.17558 1.44141H120.821L121.813 1.45506C122.489 1.46301 123.164 1.52144 123.832 1.62984C124.463 1.73593 125.075 1.93442 125.647 2.21878C126.774 2.79374 127.692 3.70338 128.27 4.82021C128.553 5.37868 128.749 5.9763 128.852 6.5928C128.965 7.2636 129.028 7.94165 129.041 8.62155C129.044 8.92599 129.044 9.253 129.044 9.57845C129.052 9.98157 129.052 10.3653 129.052 10.7521V33.2504C129.052 33.641 129.052 34.0221 129.044 34.4063C129.044 34.7559 129.044 35.0761 129.04 35.4057C129.027 36.0735 128.965 36.7394 128.854 37.3982C128.753 38.0229 128.555 38.6284 128.267 39.1935C127.981 39.7443 127.609 40.247 127.164 40.6831C126.72 41.1279 126.207 41.4991 125.644 41.7823C125.073 42.0682 124.462 42.2675 123.832 42.3733C123.16 42.4819 122.481 42.5405 121.801 42.5487C121.483 42.556 121.15 42.5602 120.826 42.5602L119.648 42.5623L9.17505 42.5602Z" fill="black"/>
<path d="M26.9075 22.3237C26.9191 21.4265 27.16 20.5467 27.6076 19.7663C28.0552 18.9859 28.6951 18.3302 29.4676 17.8603C28.9768 17.1667 28.3294 16.596 27.5767 16.1933C26.824 15.7907 25.9869 15.5672 25.1317 15.5408C23.3074 15.3513 21.5388 16.621 20.6092 16.621C19.6616 16.621 18.2303 15.5596 16.689 15.591C15.6921 15.6228 14.7205 15.9097 13.8689 16.4236C13.0173 16.9375 12.3148 17.661 11.8297 18.5234C9.7287 22.123 11.2959 27.4131 13.3085 30.3227C14.3155 31.7475 15.4923 33.3389 17.0322 33.2825C18.5391 33.2207 19.1019 32.3317 20.9208 32.3317C22.7228 32.3317 23.2508 33.2825 24.822 33.2466C26.4389 33.2206 27.4576 31.8155 28.4293 30.3773C29.1528 29.3621 29.7095 28.2401 30.0788 27.0528C29.1394 26.6597 28.3378 26.0016 27.7738 25.1606C27.2099 24.3197 26.9086 23.333 26.9075 22.3237Z" fill="white"/>
<path d="M23.9391 13.6274C24.8207 12.5801 25.255 11.234 25.1499 9.875C23.803 10.015 22.5588 10.652 21.6652 11.6591C21.2284 12.1511 20.8938 12.7234 20.6806 13.3435C20.4674 13.9635 20.3798 14.619 20.4227 15.2726C21.0964 15.2794 21.7629 15.1349 22.372 14.85C22.9811 14.565 23.5169 14.147 23.9391 13.6274Z" fill="white"/>
<path d="M45.9556 29.6767H40.8133L39.5784 33.2849H37.4004L42.271 19.9355H44.534L49.4046 33.2849H47.1894L45.9556 29.6767ZM41.3459 28.0117H45.422L43.4126 22.1559H43.3564L41.3459 28.0117Z" fill="white"/>
<path d="M59.9232 28.4197C59.9232 31.4442 58.2873 33.3874 55.8185 33.3874C55.1931 33.4198 54.5712 33.2772 54.0239 32.9761C53.4766 32.6749 53.026 32.2274 52.7238 31.6846H52.6771V36.5053H50.6582V23.5528H52.6124V25.1716H52.6496C52.9657 24.6315 53.4238 24.1862 53.9753 23.8833C54.5268 23.5803 55.1509 23.4309 55.7814 23.451C58.2777 23.451 59.9232 25.4037 59.9232 28.4197ZM57.848 28.4197C57.848 26.4493 56.8189 25.1538 55.2488 25.1538C53.7062 25.1538 52.6687 26.4766 52.6687 28.4197C52.6687 30.3808 53.7062 31.6941 55.2488 31.6941C56.819 31.6941 57.848 30.4081 57.848 28.4197Z" fill="white"/>
<path d="M70.7494 28.4197C70.7494 31.4442 69.1134 33.3874 66.6447 33.3874C66.0193 33.4198 65.3974 33.2772 64.8501 32.9761C64.3027 32.6749 63.8522 32.2274 63.55 31.6846H63.5033V36.5053H61.4844V23.5528H63.4386V25.1716H63.4757C63.7918 24.6315 64.2499 24.1862 64.8014 23.8833C65.3529 23.5803 65.9771 23.4309 66.6075 23.451C69.1039 23.451 70.7494 25.4036 70.7494 28.4197ZM68.6742 28.4197C68.6742 26.4493 67.6451 25.1538 66.075 25.1538C64.5324 25.1538 63.4948 26.4765 63.4948 28.4197C63.4948 30.3808 64.5324 31.6941 66.075 31.6941C67.6451 31.6941 68.6742 30.4081 68.6742 28.4197H68.6742Z" fill="white"/>
<path d="M77.9046 29.5654C78.0542 30.8892 79.3538 31.7584 81.1298 31.7584C82.8315 31.7584 84.0558 30.8891 84.0558 29.6955C84.0558 28.6593 83.3174 28.0389 81.569 27.6137L79.8206 27.197C77.3434 26.6049 76.1933 25.4585 76.1933 23.5982C76.1933 21.2949 78.2218 19.7129 81.1022 19.7129C83.9528 19.7129 85.907 21.2949 85.9728 23.5982H83.9348C83.8128 22.266 82.6999 21.4619 81.0735 21.4619C79.4471 21.4619 78.3342 22.2755 78.3342 23.4597C78.3342 24.4034 79.045 24.9588 80.7839 25.3839L82.2702 25.745C85.0381 26.3928 86.1882 27.493 86.1882 29.4456C86.1882 31.9431 84.1777 33.5073 80.9801 33.5073C77.9884 33.5073 75.9684 31.9798 75.8379 29.5653L77.9046 29.5654Z" fill="white"/>
<path d="M90.5445 21.248V23.5513H92.4149V25.1334H90.5445V30.4989C90.5445 31.3325 90.919 31.7209 91.7412 31.7209C91.9633 31.7171 92.1849 31.7016 92.4053 31.6747V33.2473C92.0357 33.3156 91.66 33.3466 91.284 33.3397C89.2926 33.3397 88.516 32.5996 88.516 30.712V25.1334H87.0859V23.5513H88.516V21.248H90.5445Z" fill="white"/>
<path d="M93.498 28.4182C93.498 25.3559 95.3207 23.4316 98.1629 23.4316C101.015 23.4316 102.829 25.3559 102.829 28.4182C102.829 31.4889 101.024 33.4048 98.1629 33.4048C95.3026 33.4048 93.498 31.4889 93.498 28.4182ZM100.772 28.4182C100.772 26.3176 99.7988 25.0777 98.1629 25.0777C96.5269 25.0777 95.5551 26.327 95.5551 28.4182C95.5551 30.5273 96.5269 31.7576 98.1629 31.7576C99.7988 31.7576 100.772 30.5273 100.772 28.4182H100.772Z" fill="white"/>
<path d="M104.494 23.5528H106.42V25.2093H106.466C106.597 24.6919 106.903 24.2347 107.334 23.9145C107.765 23.5943 108.294 23.4306 108.832 23.4509C109.065 23.4501 109.297 23.4751 109.524 23.5255V25.3941C109.23 25.3053 108.924 25.2645 108.617 25.2734C108.324 25.2616 108.031 25.3128 107.76 25.4234C107.488 25.534 107.244 25.7014 107.044 25.9141C106.845 26.1269 106.694 26.3799 106.602 26.6558C106.51 26.9317 106.48 27.224 106.513 27.5126V33.2855H104.494L104.494 23.5528Z" fill="white"/>
<path d="M118.831 30.4254C118.56 32.1923 116.821 33.4048 114.596 33.4048C111.735 33.4048 109.959 31.5078 109.959 28.4644C109.959 25.4116 111.744 23.4316 114.511 23.4316C117.233 23.4316 118.944 25.2814 118.944 28.2324V28.9169H111.997V29.0376C111.965 29.3958 112.01 29.7566 112.13 30.0962C112.25 30.4357 112.441 30.7461 112.691 31.0069C112.941 31.2676 113.245 31.4727 113.581 31.6084C113.918 31.7442 114.28 31.8076 114.643 31.7944C115.12 31.8386 115.599 31.7293 116.008 31.4826C116.417 31.236 116.735 30.8652 116.914 30.4254L118.831 30.4254ZM112.007 27.5206H116.924C116.942 27.1986 116.893 26.8763 116.779 26.574C116.665 26.2717 116.49 25.9959 116.263 25.7639C116.037 25.532 115.764 25.3489 115.463 25.2261C115.161 25.1033 114.837 25.0435 114.511 25.0504C114.183 25.0485 113.857 25.111 113.552 25.2344C113.248 25.3577 112.972 25.5394 112.739 25.7691C112.506 25.9988 112.321 26.2718 112.196 26.5724C112.07 26.873 112.006 27.1953 112.007 27.5206V27.5206Z" fill="white"/>
<path d="M41.0934 9.88618C41.5167 9.85613 41.9414 9.9194 42.3369 10.0714C42.7325 10.2235 43.089 10.4605 43.3808 10.7654C43.6726 11.0703 43.8924 11.4355 44.0243 11.8346C44.1561 12.2337 44.1969 12.6568 44.1435 13.0734C44.1435 15.1226 43.0243 16.3005 41.0934 16.3005H38.752V9.88618H41.0934ZM39.7588 15.3934H40.9809C41.2834 15.4113 41.5861 15.3622 41.8669 15.2498C42.1478 15.1373 42.3998 14.9643 42.6046 14.7433C42.8093 14.5223 42.9617 14.2589 43.0507 13.9723C43.1396 13.6857 43.1628 13.3831 43.1187 13.0865C43.1596 12.791 43.134 12.4903 43.0437 12.2057C42.9534 11.9212 42.8007 11.66 42.5964 11.4408C42.3921 11.2216 42.1413 11.0498 41.862 10.9377C41.5827 10.8257 41.2818 10.7761 40.9809 10.7926H39.7588V15.3934Z" fill="white"/>
<path d="M45.2804 13.8788C45.2497 13.5607 45.2865 13.2397 45.3884 12.9365C45.4904 12.6333 45.6552 12.3545 45.8724 12.118C46.0896 11.8815 46.3544 11.6926 46.6497 11.5633C46.9451 11.434 47.2645 11.3672 47.5874 11.3672C47.9103 11.3672 48.2297 11.434 48.5251 11.5633C48.8204 11.6926 49.0852 11.8815 49.3024 12.118C49.5196 12.3545 49.6844 12.6333 49.7864 12.9365C49.8883 13.2397 49.9251 13.5607 49.8944 13.8788C49.9257 14.1972 49.8894 14.5186 49.7877 14.8224C49.686 15.1261 49.5212 15.4054 49.304 15.6423C49.0867 15.8793 48.8217 16.0686 48.5261 16.1982C48.2305 16.3278 47.9107 16.3947 47.5874 16.3947C47.2641 16.3947 46.9443 16.3278 46.6487 16.1982C46.3531 16.0686 46.0881 15.8793 45.8708 15.6423C45.6536 15.4054 45.4888 15.1261 45.3871 14.8224C45.2854 14.5186 45.2491 14.1972 45.2804 13.8788ZM48.9013 13.8788C48.9013 12.8295 48.425 12.2159 47.589 12.2159C46.7498 12.2159 46.2777 12.8295 46.2777 13.8788C46.2777 14.9365 46.7498 15.5454 47.589 15.5454C48.425 15.5454 48.9013 14.9323 48.9013 13.8788H48.9013Z" fill="white"/>
<path d="M56.0279 16.3016H55.0264L54.0154 12.7364H53.939L52.9322 16.3016H51.9402L50.5918 11.4609H51.571L52.4473 15.1546H52.5195L53.5252 11.4609H54.4514L55.4571 15.1546H55.5335L56.4056 11.4609H57.371L56.0279 16.3016Z" fill="white"/>
<path d="M58.5059 11.4595H59.4352V12.2285H59.5074C59.6297 11.9523 59.8362 11.7208 60.0978 11.5662C60.3595 11.4116 60.6634 11.3417 60.9672 11.3661C61.2052 11.3484 61.4442 11.3839 61.6665 11.47C61.8887 11.5561 62.0886 11.6906 62.2512 11.8635C62.4138 12.0364 62.535 12.2433 62.6059 12.4689C62.6767 12.6944 62.6953 12.9329 62.6604 13.1665V16.3001H61.695V13.4064C61.695 12.6285 61.3534 12.2416 60.6394 12.2416C60.4778 12.2342 60.3164 12.2614 60.1664 12.3214C60.0165 12.3814 59.8814 12.4728 59.7704 12.5894C59.6595 12.7059 59.5753 12.8447 59.5237 12.9965C59.472 13.1482 59.4542 13.3091 59.4713 13.4683V16.3002H58.5059L58.5059 11.4595Z" fill="white"/>
<path d="M64.1973 9.57031H65.1627V16.3006H64.1973V9.57031Z" fill="white"/>
<path d="M66.505 13.8789C66.4743 13.5608 66.5111 13.2398 66.6131 12.9365C66.715 12.6333 66.8799 12.3545 67.0972 12.118C67.3144 11.8815 67.5792 11.6926 67.8745 11.5633C68.1699 11.434 68.4893 11.3672 68.8123 11.3672C69.1352 11.3672 69.4546 11.434 69.75 11.5633C70.0453 11.6926 70.3101 11.8815 70.5273 12.118C70.7446 12.3545 70.9095 12.6333 71.0114 12.9365C71.1134 13.2398 71.1502 13.5608 71.1195 13.8789C71.1508 14.1973 71.1144 14.5187 71.0127 14.8225C70.911 15.1262 70.7462 15.4055 70.5289 15.6424C70.3116 15.8793 70.0466 16.0687 69.751 16.1983C69.4553 16.3278 69.1356 16.3948 68.8123 16.3948C68.4889 16.3948 68.1691 16.3278 67.8735 16.1983C67.5779 16.0687 67.3129 15.8793 67.0956 15.6424C66.8783 15.4055 66.7135 15.1262 66.6118 14.8225C66.5101 14.5187 66.4737 14.1973 66.505 13.8789ZM70.1259 13.8789C70.1259 12.8296 69.6496 12.216 68.8136 12.216C67.9744 12.216 67.5023 12.8296 67.5023 13.8789C67.5023 14.9366 67.9744 15.5455 68.8136 15.5455C69.6496 15.5454 70.1259 14.9324 70.1259 13.8789H70.1259Z" fill="white"/>
<path d="M72.1367 14.9323C72.1367 14.061 72.7924 13.5587 73.9562 13.4873L75.2813 13.4117V12.9939C75.2813 12.4826 74.9396 12.1939 74.2798 12.1939C73.7408 12.1939 73.3674 12.3897 73.2602 12.7319H72.3256C72.4242 11.9005 73.2146 11.3672 74.3243 11.3672C75.5507 11.3672 76.2425 11.9713 76.2425 12.9939V16.3013H75.3131V15.621H75.2367C75.0817 15.865 74.864 16.0639 74.6058 16.1975C74.3477 16.331 74.0583 16.3943 73.7673 16.381C73.562 16.4022 73.3544 16.3805 73.158 16.3174C72.9617 16.2543 72.7808 16.1512 72.6272 16.0147C72.4736 15.8782 72.3506 15.7113 72.2661 15.5249C72.1816 15.3385 72.1375 15.1366 72.1367 14.9323ZM75.2813 14.5187V14.114L74.0867 14.1896C73.413 14.2342 73.1074 14.461 73.1074 14.8877C73.1074 15.3234 73.4894 15.5769 74.0146 15.5769C74.1684 15.5923 74.3239 15.5769 74.4716 15.5317C74.6194 15.4864 74.7564 15.4122 74.8746 15.3135C74.9928 15.2148 75.0897 15.0935 75.1596 14.957C75.2294 14.8204 75.2708 14.6714 75.2813 14.5187Z" fill="white"/>
<path d="M77.5117 13.8782C77.5117 12.3486 78.3063 11.3797 79.5423 11.3797C79.848 11.3657 80.1514 11.4382 80.4171 11.5886C80.6827 11.739 80.8996 11.9611 81.0424 12.2289H81.1146V9.57031H82.08V16.3006H81.1549V15.5358H81.0785C80.9247 15.8019 80.7002 16.0212 80.4294 16.1701C80.1587 16.3189 79.8519 16.3917 79.5423 16.3804C78.2979 16.3804 77.5117 15.4114 77.5117 13.8782ZM78.509 13.8782C78.509 14.9049 78.9981 15.5227 79.8161 15.5227C80.6298 15.5227 81.1326 14.896 81.1326 13.8824C81.1326 12.8735 80.6245 12.2379 79.8161 12.2379C79.0034 12.2379 78.509 12.8599 78.509 13.8782H78.509Z" fill="white"/>
<path d="M86.0734 13.8788C86.0427 13.5607 86.0794 13.2397 86.1814 12.9365C86.2833 12.6333 86.4482 12.3545 86.6654 12.118C86.8826 11.8815 87.1474 11.6926 87.4427 11.5633C87.738 11.434 88.0574 11.3672 88.3804 11.3672C88.7033 11.3672 89.0227 11.434 89.318 11.5633C89.6134 11.6926 89.8781 11.8815 90.0953 12.118C90.3125 12.3545 90.4774 12.6333 90.5793 12.9365C90.6813 13.2397 90.7181 13.5607 90.6873 13.8788C90.7187 14.1972 90.6823 14.5186 90.5806 14.8224C90.479 15.1261 90.3142 15.4054 90.0969 15.6423C89.8797 15.8793 89.6147 16.0686 89.3191 16.1982C89.0234 16.3278 88.7037 16.3947 88.3804 16.3947C88.057 16.3947 87.7373 16.3278 87.4417 16.1982C87.146 16.0686 86.8811 15.8793 86.6638 15.6423C86.4465 15.4054 86.2818 15.1261 86.1801 14.8224C86.0784 14.5186 86.0421 14.1972 86.0734 13.8788ZM89.6943 13.8788C89.6943 12.8295 89.2179 12.2159 88.382 12.2159C87.5428 12.2159 87.0707 12.8295 87.0707 13.8788C87.0707 14.9365 87.5428 15.5454 88.382 15.5454C89.218 15.5454 89.6943 14.9323 89.6943 13.8788Z" fill="white"/>
<path d="M91.9824 11.4595H92.9118V12.2285H92.9839C93.1063 11.9523 93.3127 11.7208 93.5744 11.5662C93.8361 11.4116 94.14 11.3417 94.4437 11.3661C94.6818 11.3484 94.9208 11.3839 95.143 11.47C95.3653 11.5561 95.5652 11.6906 95.7278 11.8635C95.8904 12.0364 96.0116 12.2433 96.0824 12.4689C96.1533 12.6944 96.1719 12.9329 96.137 13.1665V16.3001H95.1715V13.4064C95.1715 12.6285 94.8299 12.2416 94.1159 12.2416C93.9543 12.2342 93.793 12.2614 93.643 12.3214C93.493 12.3814 93.3579 12.4728 93.247 12.5894C93.136 12.7059 93.0519 12.8447 93.0002 12.9965C92.9486 13.1482 92.9307 13.3091 92.9479 13.4683V16.3002H91.9824V11.4595Z" fill="white"/>
<path d="M101.593 10.2539V11.4811H102.653V12.2858H101.593V14.7749C101.593 15.2819 101.804 15.504 102.284 15.504C102.407 15.5036 102.53 15.4962 102.653 15.4819V16.2777C102.479 16.3084 102.304 16.3247 102.127 16.3265C101.054 16.3265 100.626 15.9528 100.626 15.0195V12.2858H99.8496V11.4811H100.626V10.2539H101.593Z" fill="white"/>
<path d="M103.971 9.57031H104.928V12.2379H105.004C105.132 11.9591 105.344 11.7263 105.611 11.5711C105.878 11.4159 106.187 11.346 106.496 11.3707C106.732 11.358 106.969 11.3971 107.189 11.4853C107.409 11.5735 107.606 11.7086 107.767 11.881C107.928 12.0533 108.048 12.2587 108.12 12.4824C108.191 12.7062 108.212 12.9428 108.18 13.1753V16.3006H107.214V13.411C107.214 12.6378 106.85 12.2463 106.168 12.2463C106.002 12.2328 105.835 12.2554 105.679 12.3124C105.523 12.3694 105.381 12.4595 105.264 12.5764C105.146 12.6933 105.056 12.8342 105 12.9891C104.943 13.1441 104.921 13.3094 104.936 13.4735V16.3006H103.971L103.971 9.57031Z" fill="white"/>
<path d="M113.81 14.9943C113.679 15.4367 113.395 15.8194 113.008 16.0754C112.62 16.3314 112.154 16.4445 111.691 16.3948C111.368 16.4032 111.048 16.3421 110.752 16.2158C110.456 16.0894 110.191 15.9008 109.976 15.6631C109.761 15.4254 109.601 15.1442 109.507 14.8391C109.413 14.534 109.387 14.2123 109.431 13.8962C109.388 13.5792 109.415 13.2568 109.508 12.9508C109.602 12.6448 109.762 12.3623 109.976 12.1225C110.189 11.8827 110.453 11.6912 110.748 11.5609C111.043 11.4306 111.363 11.3645 111.687 11.3673C113.048 11.3673 113.869 12.2875 113.869 13.8075V14.1409H110.414V14.1944C110.399 14.372 110.422 14.5508 110.481 14.7194C110.54 14.8879 110.633 15.0423 110.756 15.1729C110.879 15.3035 111.027 15.4072 111.193 15.4775C111.359 15.5478 111.537 15.5831 111.717 15.5812C111.948 15.6086 112.182 15.5674 112.389 15.4629C112.597 15.3584 112.768 15.1953 112.881 14.9943L113.81 14.9943ZM110.414 13.4343H112.885C112.897 13.2719 112.875 13.1087 112.82 12.9553C112.764 12.8018 112.677 12.6616 112.564 12.5435C112.45 12.4254 112.313 12.3321 112.161 12.2695C112.009 12.207 111.846 12.1766 111.681 12.1803C111.514 12.1783 111.349 12.2093 111.194 12.2716C111.039 12.3339 110.899 12.4262 110.781 12.543C110.663 12.6599 110.569 12.799 110.506 12.952C110.444 13.1051 110.412 13.2691 110.414 13.4343H110.414Z" fill="white"/>
</svg>
