<svg width="56" height="42" viewBox="0 0 56 42" fill="none" xmlns="http://www.w3.org/2000/svg">
<path d="M18.9469 22.6982H7.63766V3.46336C7.63766 1.58865 6.11955 0.0683594 4.24266 0.0683594C2.36794 0.0683594 0.847656 1.58646 0.847656 3.46336L0.849844 26.0907C0.849844 27.9654 2.36795 29.4857 4.24484 29.4857H6.15456L3.15766 40.4976C2.99579 41.0991 3.35235 41.7204 3.95611 41.8888C4.05892 41.9151 4.1508 41.9304 4.25361 41.9304C4.75454 41.9304 5.20298 41.6001 5.34734 41.0991L8.50389 29.4858H13.5614L16.7267 41.093C16.8623 41.5939 17.3217 41.9242 17.8204 41.9242C17.9232 41.9242 18.0151 41.9067 18.1179 41.8827C18.7194 41.7208 19.076 41.093 18.9163 40.4914L15.9107 29.4863H18.9557C20.8304 29.4863 22.3507 27.9682 22.3507 26.0913C22.342 24.2166 20.8238 22.6985 18.947 22.6985L18.9469 22.6982Z" fill="#C4D600"/>
<path d="M51.7594 0.078125C49.8846 0.078125 48.3644 1.59623 48.3644 3.47313V22.6991H37.0552C35.1804 22.6991 33.6602 24.2172 33.6602 26.0941C33.6602 27.9688 35.1783 29.4891 37.0552 29.4891H40.1002L37.0967 40.5031C36.9348 41.1047 37.2914 41.7259 37.8952 41.8944C37.998 41.9206 38.0898 41.936 38.1927 41.936C38.6936 41.936 39.142 41.6057 39.2864 41.1047L42.4429 29.4869H47.5004L50.6657 41.0941C50.8013 41.595 51.2607 41.9253 51.7594 41.9253C51.8622 41.9253 51.9541 41.9078 52.0569 41.8838C52.6585 41.7219 53.015 41.094 52.8554 40.4925L49.841 29.4874H51.7595C53.6342 29.4874 55.1545 27.9693 55.1545 26.0924L55.1523 3.46501C55.1523 1.5969 53.6254 0.0787402 51.7595 0.0787402L51.7594 0.078125Z" fill="#C4D600"/>
<path d="M31.3949 39.6666H29.1286V24.9622H30.2574C30.8852 24.9622 31.3861 24.4525 31.3861 23.8334V20.4384H40.4402C42.3149 20.4384 43.8352 18.9203 43.8352 17.0434C43.8352 15.1687 42.3171 13.6484 40.4402 13.6484L15.5532 13.6528C13.6785 13.6528 12.1582 15.1709 12.1582 17.0478C12.1582 18.9225 13.6763 20.4428 15.5532 20.4428L24.6051 20.4406V23.8356C24.6051 24.4634 25.1147 24.9644 25.7338 24.9644H26.8625V39.6666H24.6051C23.9772 39.6666 23.4763 40.1763 23.4763 40.7953C23.4763 41.4144 23.986 41.9241 24.6051 41.9241H31.3928C32.0206 41.9241 32.5215 41.4144 32.5215 40.7953C32.5215 40.1763 32.0228 39.6666 31.395 39.6666L31.3949 39.6666ZM14.4241 17.0393C14.4241 16.418 14.9338 15.9106 15.5528 15.9106H40.4381C41.0659 15.9106 41.5756 16.4181 41.5756 17.0393C41.5756 17.6671 41.0659 18.168 40.4468 18.168L15.5531 18.1658C14.9341 18.1746 14.4244 17.6671 14.4244 17.0393L14.4241 17.0393Z" fill="#C4D600"/>
</svg>
