<svg width="26" height="25" viewBox="0 0 26 25" fill="none" xmlns="http://www.w3.org/2000/svg">
<path d="M7.71771 0.82318C6.41074 0.882717 5.51821 1.0841 4.73796 1.38012C3.93044 1.68397 3.246 2.09172 2.565 2.7516C1.884 3.41149 1.46464 4.0728 1.15214 4.85365C0.849721 5.60866 0.644831 6.47111 0.587099 7.73371C0.529366 8.99632 0.516591 9.40217 0.522978 12.6228C0.529366 15.8435 0.544106 16.2472 0.607489 17.5125C0.66989 18.7741 0.877728 19.6356 1.18433 20.3892C1.49952 21.1689 1.92134 21.8295 2.60504 22.4872C3.28875 23.145 3.97319 23.5489 4.7839 23.8511C5.56514 24.1426 6.45864 24.3414 7.76611 24.3967C9.07357 24.4519 9.4944 24.4647 12.8291 24.4586C16.1639 24.4524 16.5837 24.4382 17.8939 24.3782C19.2041 24.3181 20.0917 24.1161 20.8724 23.8215C21.6799 23.5164 22.3646 23.1099 23.0454 22.4495C23.7261 21.7891 24.1453 21.1274 24.4575 20.346C24.7602 19.5917 24.9658 18.729 25.0225 17.4676C25.0798 16.2017 25.0933 15.7975 25.0869 12.5773C25.0805 9.3571 25.0655 8.95339 25.0034 7.68865C24.9412 6.42391 24.7331 5.56501 24.4268 4.81096C24.1111 4.03129 23.6898 3.37116 23.0063 2.71294C22.3229 2.05471 21.637 1.65029 20.828 1.34952C20.0462 1.05753 19.1532 0.858522 17.8458 0.803967C16.5383 0.749411 16.1175 0.735416 12.7815 0.741584C9.44551 0.747751 9.02787 0.761508 7.71771 0.82318ZM7.86118 22.2631C6.66353 22.2128 6.01324 22.0206 5.57988 21.8598C5.00599 21.6463 4.59719 21.3883 4.1653 20.9753C3.73341 20.5623 3.46809 20.1662 3.24403 19.6133C3.07575 19.1949 2.87307 18.5677 2.81706 17.4114C2.75613 16.1616 2.74336 15.7864 2.73623 12.62C2.72911 9.45364 2.74164 9.07887 2.79839 7.82859C2.84949 6.6732 3.04971 6.04463 3.21603 5.62645C3.43713 5.07164 3.70344 4.67765 4.13214 4.26089C4.56083 3.84414 4.96987 3.58749 5.54303 3.37116C5.9759 3.20797 6.62545 3.01394 7.82261 2.95891C9.11803 2.89961 9.5062 2.88775 12.7852 2.88087C16.0641 2.874 16.4533 2.88586 17.7492 2.94089C18.9459 2.99117 19.5971 3.18259 20.0298 3.34412C20.6039 3.5576 21.0125 3.81401 21.4441 4.22864C21.8757 4.64326 22.1418 5.03677 22.3659 5.59134C22.5351 6.0081 22.7361 6.63501 22.7926 7.79159C22.8543 9.04234 22.8683 9.41735 22.8742 12.583C22.88 15.7486 22.8685 16.1246 22.8118 17.3744C22.7594 18.5307 22.5609 19.1588 22.3941 19.5777C22.173 20.1316 21.9065 20.5265 21.4775 20.9431C21.0486 21.3596 20.64 21.6162 20.0666 21.8325C19.6342 21.9955 18.9839 22.19 17.7878 22.245C16.4923 22.3039 16.1042 22.3162 12.824 22.3231C9.54378 22.3299 9.15685 22.3171 7.86143 22.2631H7.86118ZM17.875 6.26143C17.8755 6.54292 17.9624 6.81796 18.1248 7.05175C18.2872 7.28555 18.5178 7.46759 18.7873 7.57486C19.0569 7.68213 19.3533 7.70981 19.6392 7.65439C19.925 7.59898 20.1874 7.46297 20.3932 7.26355C20.599 7.06414 20.7389 6.81028 20.7953 6.53408C20.8516 6.25789 20.8218 5.97177 20.7098 5.7119C20.5977 5.45204 20.4083 5.2301 20.1655 5.07417C19.9228 4.91823 19.6376 4.8353 19.3461 4.83586C18.9552 4.83662 18.5807 4.98722 18.3048 5.25455C18.0289 5.52188 17.8743 5.88405 17.875 6.26143ZM6.49795 12.6119C6.50483 15.9754 9.33398 18.6958 12.8169 18.6894C16.2997 18.683 19.1193 15.9517 19.1127 12.5882C19.106 9.22474 16.2762 6.5036 12.7928 6.51025C9.30941 6.51689 6.49132 9.24894 6.49795 12.6119ZM8.71047 12.6077C8.70886 11.8258 8.94744 11.061 9.39603 10.41C9.84462 9.75898 10.4831 9.25105 11.2306 8.9504C11.9782 8.64974 12.8013 8.56988 13.5959 8.72091C14.3905 8.87193 15.1209 9.24706 15.6946 9.79885C16.2684 10.3506 16.6598 11.0543 16.8194 11.8209C16.979 12.5875 16.8995 13.3825 16.5911 14.1055C16.2826 14.8285 15.7591 15.4469 15.0866 15.8826C14.4142 16.3183 13.623 16.5517 12.8132 16.5532C12.2754 16.5543 11.7428 16.4531 11.2455 16.2554C10.7483 16.0577 10.2963 15.7674 9.91533 15.401C9.53435 15.0346 9.23185 14.5993 9.02512 14.12C8.81838 13.6408 8.71146 13.1268 8.71047 12.6077Z" fill="#E6DEDA"/>
</svg>
