<svg width="29" height="23" viewBox="0 0 29 23" fill="none" xmlns="http://www.w3.org/2000/svg">
<path d="M25.9417 6.07108C25.9593 6.31004 25.9593 6.549 25.9593 6.79016C25.9593 14.1385 20.0151 22.6134 9.1458 22.6134V22.609C5.93499 22.6134 2.79087 21.7478 0.0878906 20.1158C0.554769 20.1687 1.02399 20.1951 1.49438 20.1962C4.15523 20.1984 6.74003 19.3582 8.83338 17.811C6.30475 17.7659 4.08737 16.2143 3.31275 13.9491C4.19853 14.1099 5.11122 14.0768 5.98062 13.8533C3.22382 13.3291 1.24046 11.0496 1.24046 8.40233C1.24046 8.3781 1.24046 8.35497 1.24046 8.33185C2.06189 8.76242 2.9816 9.00138 3.92238 9.02781C1.32588 7.39472 0.525516 4.14397 2.09348 1.60239C5.09367 5.07669 9.52024 7.1888 14.2721 7.41234C13.7959 5.48083 14.4465 3.45682 15.9817 2.09903C18.3617 -0.00647086 22.1049 0.101447 24.3422 2.3402C25.6656 2.09463 26.934 1.63763 28.0948 0.990119C27.6536 2.27743 26.7304 3.37092 25.4971 4.06578C26.6684 3.93584 27.8128 3.64072 28.8904 3.19033C28.0971 4.30915 27.0978 5.28372 25.9417 6.07108Z" fill="#E6DEDA"/>
</svg>
