<svg width="18" height="21" viewBox="0 0 18 21" fill="none" xmlns="http://www.w3.org/2000/svg">
<g clip-path="url(#clip0_1709_2505)">
<path d="M6.97681 0.934659C6.9605 0.740962 6.78652 0.585304 6.56497 0.567477C6.4372 0.559159 6.31216 0.599562 6.22109 0.67918C6.13002 0.757608 6.08245 0.866935 6.09061 0.978638L6.52013 6.97978C6.52828 7.08673 6.48479 7.1913 6.40052 7.26973C6.31624 7.34816 6.19936 7.39213 6.07702 7.39213H5.90305C5.66383 7.39213 5.4681 7.22695 5.45996 7.01898L5.19899 0.939657C5.18948 0.731702 4.99375 0.566513 4.7559 0.566513H4.75319C4.63494 0.566513 4.52076 0.608105 4.43785 0.681781C4.35494 0.755458 4.30873 0.855275 4.31008 0.958661L4.39571 6.99875C4.39707 7.10332 4.35222 7.20314 4.26795 7.27681C4.18504 7.35049 4.07086 7.39208 3.95261 7.39208H3.77727C3.65902 7.39208 3.54485 7.35049 3.46194 7.27681C3.37767 7.20314 3.33145 7.10332 3.33417 6.99875L3.42116 0.958661H3.4198C3.42116 0.855278 3.37495 0.755458 3.29204 0.681781C3.20913 0.608105 3.09495 0.566513 2.9767 0.566513H2.97398C2.73612 0.566513 2.5404 0.73169 2.5309 0.939657L2.26993 7.01898C2.26177 7.22694 2.06605 7.39213 1.82684 7.39213H1.65286C1.53054 7.39213 1.41364 7.34816 1.32937 7.26973C1.2451 7.1913 1.20161 7.08673 1.20976 6.97978L1.63928 0.978638C1.64743 0.866935 1.59986 0.757611 1.5088 0.67918C1.41773 0.599562 1.29268 0.55916 1.16492 0.567477C0.943367 0.585302 0.769396 0.740971 0.753077 0.934659L0.108801 7.36474C0.00686067 8.37837 0.247441 9.00461 1.50605 9.79011C2.67226 10.5174 2.98758 11.31 3.02972 12.6801C3.24855 19.7399 1.83769 21.4593 1.83769 26.9862C1.83769 27.8941 2.85031 27.9487 3.86426 27.9451C4.87688 27.9487 5.89082 27.8952 5.89082 26.9862C5.89082 21.4593 4.47996 19.7399 4.69879 12.6801C4.74093 11.31 5.05625 10.5174 6.22246 9.79011C7.48244 9.00464 7.72166 8.3784 7.61971 7.36474L6.97681 0.934659Z" fill="white"/>
<path d="M14.7055 1.06671C13.0351 2.45825 11.5885 4.90376 11.4352 8.95011C11.3717 10.6114 11.4808 11.3315 11.8066 12.2405H11.808C12.0965 13.1662 12.8778 13.9208 13.9131 14.2749C14.2444 14.3985 14.4335 14.7015 14.3714 15.0081C13.8965 21.5582 13.9614 24.3365 14.3534 26.4578C14.7469 28.5861 17.0591 28.1999 17.0605 26.7442L17.0826 1.79382C17.0839 0.672029 15.8885 0.0814281 14.7055 1.06656L14.7055 1.06671Z" fill="white"/>
</g>
<defs>
<clipPath id="clip0_1709_2505">
<rect width="16.9938" height="19.8261" fill="white" transform="translate(0.0878906 0.566406)"/>
</clipPath>
</defs>
</svg>
