<svg width="21" height="20" viewBox="0 0 21 20" fill="none" xmlns="http://www.w3.org/2000/svg">
<path d="M6.25619 0.312368C5.21821 0.36134 4.50937 0.526987 3.8897 0.770483C3.24838 1.02042 2.7048 1.35581 2.16396 1.8986C1.62311 2.44139 1.29006 2.98536 1.04188 3.62765C0.801698 4.24868 0.638977 4.9581 0.593126 5.99666C0.547275 7.03522 0.537129 7.36906 0.542202 10.0182C0.547275 12.6674 0.558982 12.9995 0.60932 14.0402C0.658878 15.078 0.823941 15.7866 1.06744 16.4065C1.31776 17.0478 1.65277 17.5912 2.19576 18.1322C2.73875 18.6733 3.28233 19.0055 3.92619 19.2541C4.54664 19.4939 5.25625 19.6574 6.29463 19.7028C7.333 19.7483 7.66723 19.7588 10.3156 19.7538C12.9641 19.7487 13.2975 19.737 14.338 19.6876C15.3786 19.6383 16.0835 19.472 16.7035 19.2297C17.3449 18.9788 17.8886 18.6444 18.4293 18.1012C18.9699 17.558 19.3028 17.0137 19.5508 16.371C19.7912 15.7505 19.9545 15.0409 19.9995 14.0033C20.045 12.962 20.0557 12.6296 20.0507 9.98078C20.0456 7.33199 20.0337 6.99991 19.9843 5.95959C19.935 4.91927 19.7697 4.21278 19.5264 3.59253C19.2757 2.95121 18.9411 2.40822 18.3983 1.8668C17.8555 1.32537 17.3107 0.992711 16.6682 0.745314C16.0474 0.505135 15.3382 0.341439 14.2998 0.296564C13.2614 0.251689 12.9272 0.240178 10.2778 0.24525C7.6284 0.250323 7.29671 0.26164 6.25619 0.312368ZM6.37014 17.9478C5.41897 17.9065 4.90252 17.7484 4.55834 17.6162C4.10257 17.4406 3.7779 17.2283 3.4349 16.8886C3.0919 16.5489 2.88118 16.2231 2.70324 15.7683C2.56959 15.4241 2.40862 14.9082 2.36414 13.9571C2.31575 12.9291 2.30561 12.6204 2.29995 10.0159C2.29429 7.41139 2.30424 7.10312 2.34931 6.07471C2.38989 5.12433 2.54891 4.60729 2.681 4.26332C2.8566 3.80696 3.06809 3.48288 3.40856 3.14008C3.74903 2.79727 4.07389 2.58616 4.52908 2.40822C4.87286 2.27399 5.38873 2.11439 6.3395 2.06913C7.36832 2.02035 7.67659 2.01059 10.2807 2.00493C12.8849 1.99928 13.1939 2.00903 14.2231 2.0543C15.1735 2.09566 15.6907 2.25311 16.0343 2.38598C16.4903 2.56158 16.8148 2.77249 17.1576 3.11354C17.5004 3.45459 17.7117 3.77828 17.8896 4.23444C18.024 4.57725 18.1836 5.09292 18.2285 6.04427C18.2775 7.07308 18.2886 7.38154 18.2933 9.98546C18.298 12.5894 18.2888 12.8986 18.2437 13.9267C18.2022 14.8778 18.0445 15.3945 17.9121 15.739C17.7365 16.1946 17.5248 16.5195 17.1841 16.8621C16.8434 17.2047 16.519 17.4158 16.0636 17.5937C15.7202 17.7278 15.2037 17.8878 14.2537 17.933C13.2249 17.9814 12.9167 17.9915 10.3116 17.9972C7.70644 18.0029 7.39914 17.9923 6.37033 17.9478H6.37014ZM14.323 4.78562C14.3234 5.01717 14.3924 5.24341 14.5214 5.43571C14.6504 5.62802 14.8335 5.77776 15.0476 5.86599C15.2617 5.95423 15.4971 5.977 15.7241 5.93142C15.9511 5.88584 16.1595 5.77396 16.323 5.60993C16.4864 5.4459 16.5975 5.23708 16.6423 5.0099C16.687 4.78271 16.6634 4.54736 16.5744 4.33361C16.4853 4.11986 16.3349 3.9373 16.1421 3.80904C15.9494 3.68077 15.7229 3.61256 15.4913 3.61302C15.1809 3.61364 14.8835 3.73752 14.6644 3.95741C14.4453 4.17731 14.3225 4.47521 14.323 4.78562ZM5.28747 10.0093C5.29293 12.7759 7.53982 15.0136 10.3059 15.0083C13.072 15.0031 15.3112 12.7564 15.306 9.98975C15.3007 7.22311 13.0532 4.98483 10.2868 4.99029C7.52031 4.99575 5.2822 7.24302 5.28747 10.0093ZM7.04463 10.0058C7.04336 9.36259 7.23283 8.7335 7.5891 8.19803C7.94536 7.66256 8.45241 7.24475 9.04613 6.99745C9.63985 6.75015 10.2936 6.68445 10.9246 6.80868C11.5557 6.93291 12.1357 7.24147 12.5914 7.69535C13.0471 8.14923 13.3579 8.72804 13.4847 9.3586C13.6114 9.98915 13.5483 10.6431 13.3033 11.2378C13.0584 11.8325 12.6426 12.3412 12.1085 12.6996C11.5745 13.058 10.9461 13.2499 10.303 13.2512C9.87591 13.2521 9.45285 13.1688 9.05797 13.0062C8.66308 12.8436 8.3041 12.6048 8.00152 12.3034C7.69895 12.002 7.45871 11.644 7.29452 11.2498C7.13034 10.8555 7.04542 10.4328 7.04463 10.0058Z" fill="#575757"/>
</svg>
