<svg width="113" height="26" viewBox="0 0 113 26" fill="none" xmlns="http://www.w3.org/2000/svg">
<path d="M3.96391 22.49C3.96391 24.62 5.22391 25.58 7.38391 25.49C7.65391 25.49 7.77391 25.34 7.77391 25.07C7.86391 23.12 8.25391 21.47 9.30391 19.19L11.5239 14.36C12.1239 13.07 12.5139 12.08 12.8439 11.36C13.7739 9.2 14.7939 6.98 15.4839 5.81C16.3239 6.02 17.0739 6.11 17.7039 6.11C20.7939 6.11 22.4739 4.25 22.4739 2.54C22.4739 2.33 22.4439 2.12 22.3839 1.91C22.3239 1.73 22.2339 1.64 22.0839 1.64C22.0239 1.64 21.9339 1.67 21.8139 1.76C20.1339 2.87 18.9339 3.35 17.7039 3.35C16.5039 3.35 15.5439 2.99 13.8939 2.27C12.7239 1.79 11.7039 1.43 10.8939 1.19C10.0839 0.95 9.15391 0.829999 8.10391 0.829999C3.36391 0.829999 0.153906 4.01 0.153906 7.94C0.153906 10.07 1.32391 11.63 3.36391 11.48C3.60391 11.45 3.72391 11.33 3.72391 11.18C3.72391 11.15 3.69391 11.09 3.66391 10.97C3.30391 10.16 3.12391 9.35 3.12391 8.57C3.12391 5.99 5.10391 3.89 8.25391 3.89C9.72391 3.89 10.9839 4.28 13.1139 5.03C10.8639 6.74 9.06391 9.89 6.93391 14.36L5.28391 17.81C4.41391 19.64 3.96391 21.2 3.96391 22.49ZM13.7334 19.67C13.7334 21.95 14.9034 23.45 17.3034 23.45C19.0434 23.45 20.6634 22.61 22.1334 20.96C22.3434 22.52 23.3334 23.45 25.0434 23.45C28.0134 23.45 30.7734 20.81 32.8434 16.4C32.8734 16.28 32.9034 16.19 32.9034 16.16C32.9034 15.8 32.4534 15.5 32.0934 15.5C31.8234 15.5 31.6734 15.59 31.5834 15.8C30.0534 18.95 28.7334 20.6 27.6834 20.6C27.1734 20.6 26.8134 20.18 26.8134 19.46C26.8134 18.89 27.0234 18.2 27.4134 17.33L30.3534 10.94C30.4734 10.67 30.3234 10.46 30.0534 10.46H27.1434C26.9334 10.46 26.7834 10.55 26.6334 10.7L25.9134 11.51C25.2534 10.49 24.1434 9.98 22.5834 9.98C20.9634 9.98 19.4634 10.49 18.1134 11.54C16.7634 12.56 15.7134 13.82 14.9034 15.35C14.1234 16.88 13.7334 18.32 13.7334 19.67ZM23.3034 16.43C22.1034 19.04 20.6634 20.81 19.3434 20.81C18.5334 20.81 18.1434 20.3 18.1434 19.31C18.1434 18.44 18.4134 17.42 18.9534 16.25C19.4934 15.08 20.1534 14.06 20.9634 13.22C21.7734 12.35 22.5534 11.93 23.3334 11.93C24.0834 11.93 24.5634 12.32 24.8334 13.13L23.3034 16.43ZM29.9589 19.04C29.9589 20.33 30.4089 21.47 31.3089 22.4C32.2089 23.33 33.5889 23.78 35.4489 23.78C40.2789 23.78 44.4189 21.11 46.6089 16.4C46.6389 16.28 46.6689 16.19 46.6689 16.16C46.6689 15.8 46.2189 15.5 45.8589 15.5C45.5889 15.5 45.4389 15.59 45.3489 15.8C44.3589 17.87 43.0689 19.43 41.4489 20.42C41.7489 19.73 41.8989 18.89 41.8989 17.96C41.8989 17.15 41.8089 16.16 41.6589 14.99C41.5089 14.12 41.4489 13.34 41.4489 12.65C41.4489 12.11 41.4789 11.69 41.5089 11.36C41.5389 11.21 41.4789 11.03 41.3889 10.82L40.6989 9.71C40.6089 9.56 40.4589 9.47 40.3089 9.47L40.1589 9.5C36.5889 10.28 34.0089 12.17 32.3589 15.2C30.9489 15.35 29.9589 17.12 29.9589 19.04ZM37.7289 18.2C37.7289 20.12 36.6489 21.77 34.5789 21.77C33.0189 21.77 32.1489 20.69 32.1189 19.28C33.5889 19.28 34.5489 18.41 34.5489 17.09C34.5489 16.46 34.2789 15.89 33.7989 15.53C34.6989 13.94 35.9289 12.71 37.4889 11.87C37.3389 12.35 37.2789 12.89 37.2789 13.46C37.2789 14.15 37.3389 14.99 37.4889 15.92C37.6389 16.97 37.7289 17.72 37.7289 18.2ZM43.9984 20.3C43.9984 22.34 45.2584 23.45 47.2684 23.45C50.2984 23.45 53.9584 20.57 55.8784 16.4C55.9084 16.28 55.9384 16.19 55.9384 16.16C55.9384 15.8 55.4884 15.5 55.1284 15.5C54.8584 15.5 54.7084 15.59 54.6184 15.8C53.1784 18.83 51.0784 20.6 49.7284 20.6C49.0384 20.6 48.6184 20.15 48.6184 19.31C48.6184 18.71 48.8284 17.99 49.2184 17.12L51.6184 11.99H54.0784C54.3484 11.99 54.4984 11.9 54.5884 11.69L54.9184 10.94C55.0384 10.67 54.9184 10.46 54.5884 10.46H52.3384L54.6484 5.51C54.7684 5.24 54.6484 5.06 54.4084 5.06H54.2884L50.3884 5.6C50.1484 5.63 49.9984 5.75 49.9084 5.96L47.8384 10.46H46.4884C46.2184 10.46 46.0684 10.55 45.9784 10.76L45.6484 11.51C45.5284 11.78 45.6784 11.99 45.9484 11.99H47.1184L45.3484 15.8L45.0184 16.49C44.3284 17.96 43.9984 19.25 43.9984 20.3ZM53.2862 19.25C53.2862 21.86 54.9063 23.6 58.2363 23.6C61.4763 23.6 64.4463 22.19 66.7263 19.67C66.8763 19.52 66.9363 19.37 66.9363 19.19C66.9363 18.8 66.5763 18.44 66.1863 18.44C66.0063 18.44 65.8563 18.53 65.7063 18.68C64.0563 20.45 62.0762 21.38 60.0363 21.38C58.3863 21.38 57.6663 20.51 57.6663 19.07V18.8C62.7963 18.26 66.0963 15.05 66.0063 12.65C66.0063 11.09 64.6863 9.98 62.3763 9.98C57.4863 9.8 53.1962 15.32 53.2862 19.25ZM63.4563 12.8C63.4563 14.21 61.8963 16.58 57.9963 17.18C58.4463 15.77 59.1063 14.48 59.9463 13.34C60.7863 12.2 61.5963 11.63 62.3463 11.63C62.9762 11.63 63.4563 12.05 63.4563 12.8ZM73.1781 20.3C73.1781 22.34 74.4381 23.45 76.4481 23.45C79.4781 23.45 83.1381 20.57 85.0581 16.4C85.0881 16.28 85.1181 16.19 85.1181 16.16C85.1181 15.8 84.6681 15.5 84.3081 15.5C84.0381 15.5 83.8881 15.59 83.7981 15.8C82.3581 18.83 80.2581 20.6 78.9081 20.6C78.2181 20.6 77.7981 20.15 77.7981 19.31C77.7981 18.71 78.0081 17.99 78.3981 17.12L80.7981 11.99H83.2581C83.5281 11.99 83.6781 11.9 83.7681 11.69L84.0981 10.94C84.2181 10.67 84.0981 10.46 83.7681 10.46H81.5181L83.8281 5.51C83.9481 5.24 83.8281 5.06 83.5881 5.06H83.4681L79.5681 5.6C79.3281 5.63 79.1781 5.75 79.0881 5.96L77.0181 10.46H75.6681C75.3981 10.46 75.2481 10.55 75.1581 10.76L74.8281 11.51C74.7081 11.78 74.8581 11.99 75.1281 11.99H76.2981L74.5281 15.8L74.1981 16.49C73.5081 17.96 73.1781 19.25 73.1781 20.3ZM90.2359 20.72C90.2359 22.43 91.4359 23.45 93.3259 23.45C96.2959 23.45 99.0559 20.84 101.186 16.4C101.396 15.95 100.916 15.5 100.436 15.5C100.226 15.5 100.046 15.59 99.9259 15.8C98.5159 18.92 97.0459 20.57 95.9659 20.57C95.4859 20.57 95.1859 20.24 95.1859 19.61C95.1859 19.04 95.4259 18.29 95.8759 17.36L97.1059 14.84C97.5859 13.91 97.8259 13.04 97.8259 12.26C97.8259 10.79 96.8359 9.98 95.1259 9.98C93.4759 9.98 91.6459 10.76 89.9659 12.23L94.0759 3.38C94.1959 3.11 94.0459 2.9 93.7759 2.9H90.1759C89.9059 2.9 89.7559 2.99 89.6659 3.2L83.7859 15.8L80.6659 22.52C80.5459 22.79 80.6959 23 80.9659 23H84.5659C84.8359 23 84.9859 22.91 85.0759 22.7L87.2959 17.93C88.0159 16.37 88.8259 15.14 89.7559 14.21C90.6859 13.28 91.4959 12.8 92.1859 12.8C92.6959 12.8 92.9659 13.04 92.9659 13.52C92.9659 13.85 92.8159 14.3 92.5459 14.9L90.9859 18.02C90.4759 19.04 90.2359 19.94 90.2359 20.72ZM98.6085 19.25C98.6085 21.86 100.229 23.6 103.559 23.6C106.799 23.6 109.769 22.19 112.049 19.67C112.199 19.52 112.259 19.37 112.259 19.19C112.259 18.8 111.899 18.44 111.509 18.44C111.329 18.44 111.179 18.53 111.029 18.68C109.379 20.45 107.399 21.38 105.359 21.38C103.709 21.38 102.989 20.51 102.989 19.07V18.8C108.119 18.26 111.419 15.05 111.329 12.65C111.329 11.09 110.009 9.98 107.699 9.98C102.809 9.8 98.5185 15.32 98.6085 19.25ZM108.779 12.8C108.779 14.21 107.219 16.58 103.319 17.18C103.769 15.77 104.429 14.48 105.269 13.34C106.109 12.2 106.919 11.63 107.669 11.63C108.299 11.63 108.779 12.05 108.779 12.8Z" fill="#E96500"/>
</svg>
