<svg width="22" height="18" viewBox="0 0 22 18" fill="none" xmlns="http://www.w3.org/2000/svg">
<path d="M19.7533 4.50904C19.7667 4.70308 19.7667 4.89712 19.7667 5.09294C19.7667 11.0599 15.2367 17.9415 6.95357 17.9415V17.938C4.5067 17.9415 2.11065 17.2387 0.0507812 15.9135C0.406577 15.9564 0.764156 15.9779 1.12263 15.9788C3.15039 15.9806 5.1202 15.2983 6.71548 14.042C4.78848 14.0053 3.09867 12.7454 2.50836 10.9061C3.18339 11.0366 3.87893 11.0098 4.54147 10.8283C2.44059 10.4026 0.929124 8.55166 0.929124 6.40203C0.929124 6.38236 0.929124 6.36358 0.929124 6.34481C1.55511 6.69443 2.256 6.88847 2.97294 6.90993C0.994219 5.58385 0.384284 2.94421 1.57919 0.880423C3.86555 3.70159 7.23892 5.41664 10.8602 5.59816C10.4973 4.02975 10.9931 2.38624 12.163 1.2837C13.9767 -0.425986 16.8293 -0.338356 18.5343 1.47953C19.5428 1.28012 20.5095 0.909037 21.3941 0.383254C21.0579 1.42856 20.3543 2.31649 19.4144 2.88072C20.307 2.77521 21.1791 2.53556 22.0004 2.16984C21.3958 3.07834 20.6343 3.86969 19.7533 4.50904Z" fill="#575757"/>
</svg>
